<?xml version="1.0" encoding="utf-8"?>
<!-- Generator: Adobe Illustrator 13.0.0, SVG Export Plug-In . SVG Version: 6.00 Build 14948)  -->
<!DOCTYPE svg PUBLIC "-//W3C//DTD SVG 1.1//EN" "http://www.w3.org/Graphics/SVG/1.1/DTD/svg11.dtd">
<svg version="1.1" id="Layer_1" xmlns="http://www.w3.org/2000/svg" xmlns:xlink="http://www.w3.org/1999/xlink" x="0px" y="0px"
	 width="102.5px" height="73px" viewBox="0 0 102.5 73" enable-background="new 0 0 102.5 73" xml:space="preserve">
<g>
	<g>
		<path fill="#4E182A" d="M15.065,23.814c0,3.022-0.074,4.755,3.465,4.644v1.329H5.96v-1.329c3.538,0.111,3.466-1.621,3.466-4.644
			v-12.46c0-3.023,0.072-4.756-3.466-4.647V5.38h12.57v1.328c-3.539-0.109-3.465,1.624-3.465,4.647v5.124h10.912v-5.124
			c0-3.023,0.035-4.756-3.502-4.647V5.38H35.08v1.328c-3.539-0.109-3.463,1.624-3.463,4.647v12.459c0,3.022-0.076,4.755,3.463,4.644
			v1.329H22.475v-1.329c3.538,0.111,3.502-1.621,3.502-4.644v-5.492H15.065V23.814z"/>
		<path fill="#4E182A" d="M77.516,40.116c0,3.022-0.074,4.756,3.465,4.644v1.328H68.41V44.76c3.537,0.112,3.466-1.621,3.466-4.644
			V27.657c0-3.023,0.071-4.755-3.466-4.646v-1.328h12.57v1.328c-3.541-0.109-3.467,1.623-3.467,4.646v5.123h10.912v-5.123
			c0-3.023,0.034-4.755-3.502-4.646v-1.328h12.605v1.328c-3.539-0.109-3.463,1.623-3.463,4.646v12.459
			c0,3.022-0.076,4.756,3.463,4.644v1.328H84.925V44.76c3.536,0.112,3.502-1.621,3.502-4.644v-5.492H77.516V40.116z"/>
		<path fill="#CCAD5E" d="M68.41,21.684h-4.518H60.27h-4.256c-0.371,0-0.673,0.3-0.673,0.67c0,0.232,0.124,0.426,0.302,0.547
			c0.053,0.034,0.102,0.063,0.158,0.081c2.999,1.693,4.988,4.915,4.988,8.652c0,1.854-0.516,3.586-1.396,5.073
			c-0.922-2.629-2.509-5.272-4.977-7.737c-2.023-2.021-3.761-3.718-5.254-5.159c-0.597-0.575-1.148-1.105-1.668-1.604
			c-0.212-0.203-0.418-0.401-0.62-0.593c-0.787-0.756-1.485-1.425-2.095-2.021c-2.494-2.437-3.559-3.68-3.814-4.996
			c-0.01-0.088-0.034-0.175-0.041-0.267c-0.013-0.167-0.025-0.336-0.025-0.507c0-3.443,2.792-6.233,6.233-6.233
			c2.566,0,4.765,1.552,5.72,3.767c0.051,0.119,0.098,0.239,0.143,0.362c0.029,0.056,0.066,0.104,0.104,0.143
			c0.418,0.415,1.144-0.191,1.69-1.085c0.302-0.492,0.548-1.071,0.655-1.61c0.164-0.816-0.441-1.529-1.117-2.051
			c-0.483-0.334-1.006-0.625-1.553-0.868c-1.272-0.567-2.691-0.868-4.164-0.859V5.38H35.08v1.327h8.471
			c-3.69,2.049-5.763,6.153-4.802,10.204c0.31,2.188,1.092,4.012,2.452,5.953c-5.455,4.202-7.974,10.453-5.735,15.53
			c2.791,6.328,11.916,8.432,20.38,4.699c0.33-0.146,0.651-0.3,0.969-0.458c1.68,4.927-0.022,8.145-2.41,9.519
			c-3.895,2.236-7.197,1.984-9.714-0.452c-2.516-2.438-3.211-0.121-3.46,0.856c-0.249,0.974-1.854,4.588,4.279,4.588
			c6.135,0,11.535-2.553,13.699-7.967c0.985-2.472,1.474-5.498,1.074-8.693c5.522-4.201,8.09-10.5,5.837-15.61
			c-0.303-0.687-0.646-1.298-1.055-1.864h3.345L68.41,21.684L68.41,21.684z M50.794,41.629c-5.521,0-9.996-4.477-9.996-9.995
			c0-2.423,0.865-4.646,2.301-6.378c1.503,1.726,3.422,3.656,5.831,6.063c3.362,3.362,5.55,6.348,6.875,8.953
			C54.33,41.129,52.622,41.629,50.794,41.629"/>
	</g>
	<g>
		<path fill="#4E182A" d="M5.722,63.407h3.109v0.663h-2.38v1.152h2.11v0.664h-2.11v1.705H5.722V63.407z"/>
		<path fill="#4E182A" d="M14.535,63.376h0.682l1.842,4.215h-0.778l-0.424-1.012h-1.979l-0.431,1.012h-0.753L14.535,63.376z
			 M15.588,65.93l-0.724-1.674l-0.718,1.674H15.588z"/>
		<path fill="#4E182A" d="M22.655,67.65c-0.323,0-0.632-0.056-0.926-0.164c-0.296-0.108-0.568-0.277-0.82-0.504l0.442-0.526
			c0.204,0.175,0.41,0.31,0.617,0.403C22.175,66.952,22.41,67,22.673,67c0.228,0,0.407-0.048,0.541-0.145
			c0.134-0.097,0.2-0.224,0.2-0.383v-0.011c0-0.077-0.012-0.144-0.038-0.201c-0.026-0.059-0.075-0.112-0.144-0.166
			c-0.07-0.051-0.167-0.099-0.288-0.143c-0.122-0.043-0.281-0.087-0.477-0.132c-0.224-0.053-0.423-0.11-0.597-0.176
			c-0.174-0.065-0.32-0.146-0.438-0.239c-0.118-0.095-0.208-0.21-0.269-0.345c-0.062-0.136-0.093-0.297-0.093-0.49v-0.01
			c0-0.181,0.036-0.345,0.107-0.494c0.071-0.148,0.169-0.277,0.293-0.381c0.125-0.106,0.275-0.189,0.449-0.25
			c0.175-0.06,0.367-0.09,0.574-0.09c0.307,0,0.583,0.045,0.828,0.135c0.245,0.09,0.475,0.22,0.69,0.393l-0.395,0.555
			c-0.191-0.139-0.38-0.244-0.567-0.318c-0.188-0.073-0.377-0.11-0.569-0.11c-0.215,0-0.382,0.048-0.502,0.144
			c-0.119,0.096-0.179,0.213-0.179,0.353v0.012c0,0.081,0.014,0.151,0.042,0.213c0.029,0.063,0.08,0.118,0.154,0.167
			c0.074,0.051,0.175,0.098,0.305,0.143c0.13,0.043,0.294,0.088,0.495,0.136c0.219,0.058,0.415,0.118,0.584,0.187
			c0.17,0.067,0.311,0.151,0.422,0.248c0.112,0.098,0.197,0.211,0.255,0.34c0.058,0.131,0.086,0.279,0.086,0.451v0.012
			c0,0.197-0.036,0.373-0.108,0.526c-0.073,0.155-0.175,0.287-0.306,0.396c-0.13,0.107-0.287,0.189-0.471,0.246
			C23.076,67.624,22.875,67.65,22.655,67.65z"/>
		<path fill="#4E182A" d="M28.419,63.407h0.729v1.739h2.01v-1.739h0.729v4.185h-0.729v-1.764h-2.01v1.764h-0.729V63.407z"/>
		<path fill="#4E182A" d="M36.415,63.407h0.729v4.185h-0.729V63.407z"/>
		<path fill="#4E182A" d="M43.673,67.663c-0.323,0-0.618-0.058-0.885-0.17c-0.267-0.114-0.496-0.269-0.687-0.463
			c-0.192-0.196-0.341-0.425-0.449-0.687c-0.108-0.261-0.161-0.539-0.161-0.834V65.5c0-0.296,0.053-0.574,0.161-0.835
			c0.107-0.26,0.259-0.491,0.454-0.688c0.197-0.196,0.427-0.354,0.694-0.47c0.268-0.114,0.563-0.173,0.885-0.173
			c0.324,0,0.618,0.057,0.885,0.171c0.268,0.114,0.496,0.269,0.688,0.463c0.192,0.196,0.341,0.425,0.449,0.685
			c0.106,0.263,0.161,0.539,0.161,0.834V65.5c0,0.293-0.055,0.573-0.161,0.833c-0.108,0.261-0.26,0.49-0.455,0.688
			c-0.194,0.196-0.426,0.354-0.693,0.47C44.292,67.605,43.996,67.663,43.673,67.663z M43.686,66.986
			c0.206,0,0.396-0.037,0.569-0.115c0.173-0.078,0.32-0.184,0.443-0.316c0.124-0.135,0.22-0.291,0.29-0.471
			c0.068-0.178,0.104-0.37,0.104-0.574V65.5c0-0.204-0.036-0.396-0.104-0.578c-0.07-0.181-0.168-0.339-0.293-0.472
			c-0.124-0.134-0.275-0.241-0.449-0.32c-0.175-0.079-0.365-0.119-0.572-0.119c-0.206,0-0.396,0.039-0.569,0.117
			c-0.172,0.078-0.32,0.185-0.443,0.317s-0.22,0.289-0.289,0.47c-0.07,0.178-0.104,0.37-0.104,0.573V65.5
			c0,0.204,0.035,0.396,0.104,0.577c0.069,0.182,0.167,0.339,0.291,0.473c0.125,0.134,0.275,0.239,0.45,0.318
			C43.289,66.948,43.479,66.986,43.686,66.986z"/>
		<path fill="#4E182A" d="M50.169,63.407h0.678l2.238,2.893v-2.893h0.729v4.185H53.2l-2.303-2.978v2.978h-0.729L50.169,63.407
			L50.169,63.407z"/>
		<path fill="#4E182A" d="M63.502,63.407h0.73v1.739h2.008v-1.739h0.729v4.185H66.24v-1.764h-2.008v1.764h-0.73V63.407z"/>
		<path fill="#4E182A" d="M73.451,67.663c-0.322,0-0.617-0.058-0.885-0.17c-0.269-0.114-0.496-0.269-0.688-0.463
			c-0.191-0.196-0.342-0.425-0.447-0.687c-0.108-0.261-0.162-0.539-0.162-0.834V65.5c0-0.296,0.054-0.574,0.162-0.835
			c0.105-0.26,0.258-0.491,0.452-0.688c0.196-0.196,0.427-0.354,0.694-0.47c0.268-0.114,0.563-0.173,0.884-0.173
			c0.324,0,0.619,0.057,0.886,0.171c0.268,0.114,0.495,0.269,0.688,0.463c0.191,0.196,0.343,0.425,0.447,0.685
			c0.108,0.263,0.162,0.539,0.162,0.834V65.5c0,0.293-0.054,0.573-0.162,0.833c-0.104,0.261-0.258,0.49-0.453,0.688
			c-0.195,0.197-0.428,0.354-0.692,0.47C74.068,67.605,73.773,67.663,73.451,67.663z M73.463,66.986
			c0.207,0,0.396-0.037,0.569-0.115s0.319-0.184,0.444-0.316c0.123-0.135,0.217-0.291,0.287-0.471
			c0.069-0.178,0.104-0.37,0.104-0.574V65.5c0-0.204-0.034-0.396-0.104-0.578c-0.07-0.181-0.166-0.339-0.291-0.472
			c-0.125-0.134-0.274-0.241-0.449-0.32c-0.174-0.079-0.364-0.119-0.572-0.119c-0.205,0-0.396,0.039-0.567,0.117
			c-0.173,0.078-0.319,0.185-0.444,0.317c-0.121,0.134-0.219,0.289-0.287,0.47c-0.07,0.178-0.104,0.37-0.104,0.573V65.5
			c0,0.204,0.034,0.396,0.104,0.577c0.068,0.182,0.166,0.339,0.291,0.473c0.123,0.134,0.275,0.239,0.449,0.318
			C73.066,66.948,73.257,66.986,73.463,66.986z"/>
		<path fill="#4E182A" d="M81.662,67.658c-0.271,0-0.516-0.04-0.737-0.117c-0.218-0.077-0.405-0.195-0.562-0.352
			c-0.155-0.154-0.274-0.347-0.357-0.575c-0.083-0.229-0.126-0.496-0.126-0.8v-2.408h0.729v2.38c0,0.39,0.094,0.687,0.281,0.89
			c0.189,0.204,0.449,0.307,0.782,0.307c0.329,0,0.586-0.099,0.776-0.295c0.188-0.194,0.281-0.485,0.281-0.873v-2.408h0.729v2.373
			c0,0.311-0.043,0.584-0.129,0.818c-0.085,0.235-0.207,0.434-0.363,0.59c-0.153,0.157-0.342,0.275-0.563,0.354
			C82.186,67.618,81.938,67.658,81.662,67.658z"/>
		<path fill="#4E182A" d="M89.354,67.65c-0.326,0-0.635-0.056-0.928-0.164c-0.297-0.108-0.568-0.277-0.82-0.504l0.443-0.526
			c0.202,0.175,0.408,0.31,0.614,0.403C88.871,66.953,89.105,67,89.368,67c0.229,0,0.407-0.048,0.543-0.145
			c0.134-0.097,0.2-0.224,0.2-0.383v-0.011c0-0.077-0.014-0.144-0.041-0.201c-0.024-0.059-0.073-0.112-0.144-0.166
			c-0.067-0.051-0.165-0.099-0.286-0.143c-0.121-0.043-0.281-0.087-0.479-0.132c-0.223-0.053-0.422-0.11-0.596-0.176
			c-0.176-0.065-0.319-0.146-0.438-0.239c-0.116-0.095-0.207-0.21-0.269-0.345c-0.063-0.136-0.094-0.297-0.094-0.49v-0.01
			c0-0.181,0.035-0.345,0.106-0.494c0.071-0.148,0.168-0.277,0.293-0.381c0.125-0.106,0.274-0.189,0.448-0.25
			c0.175-0.06,0.367-0.09,0.574-0.09c0.309,0,0.584,0.045,0.828,0.135s0.476,0.22,0.69,0.393l-0.396,0.555
			c-0.19-0.139-0.381-0.244-0.568-0.318c-0.188-0.073-0.377-0.11-0.567-0.11c-0.214,0-0.383,0.048-0.502,0.144
			c-0.118,0.096-0.179,0.213-0.179,0.353v0.012c0,0.081,0.013,0.151,0.041,0.213c0.027,0.063,0.078,0.118,0.152,0.167
			c0.074,0.051,0.176,0.098,0.307,0.143c0.131,0.043,0.295,0.088,0.494,0.136c0.219,0.058,0.416,0.118,0.584,0.187
			c0.171,0.067,0.312,0.151,0.423,0.248c0.11,0.098,0.196,0.211,0.256,0.34c0.058,0.131,0.086,0.279,0.086,0.451v0.012
			c0,0.197-0.037,0.373-0.108,0.526c-0.072,0.155-0.177,0.287-0.306,0.396c-0.131,0.107-0.289,0.189-0.471,0.246
			C89.771,67.624,89.57,67.65,89.354,67.65z"/>
		<path fill="#4E182A" d="M95.116,63.407h3.098v0.663h-2.368v1.076h2.1v0.664h-2.1v1.117h2.398v0.664h-3.128V63.407z"/>
	</g>
</g>
</svg>
