<?xml version="1.0" encoding="utf-8"?>
<!-- Generator: Adobe Illustrator 13.0.0, SVG Export Plug-In . SVG Version: 6.00 Build 14948)  -->
<!DOCTYPE svg PUBLIC "-//W3C//DTD SVG 1.1//EN" "http://www.w3.org/Graphics/SVG/1.1/DTD/svg11.dtd">
<svg version="1.1" id="Layer_2" xmlns="http://www.w3.org/2000/svg" xmlns:xlink="http://www.w3.org/1999/xlink" x="0px" y="0px"
	 width="121.5px" height="121.5px" viewBox="0 0 121.5 121.5" enable-background="new 0 0 121.5 121.5" xml:space="preserve">
<rect x="116.375" y="521.984" fill="#E5D0A5" width="1101.248" height="585.227"/>
<g>
	<rect x="631.458" y="1121.447" fill="#4E182A" width="23.536" height="23.537"/>
	<rect x="657.796" y="1121.447" fill="#CCAD5E" width="23.536" height="23.537"/>
	<rect x="684.134" y="1121.447" fill="#E5D0A5" width="23.536" height="23.537"/>
</g>
<g>
	<g>
		<path fill="#4E182A" d="M586.985,702.518c0,6.868-0.167,10.803,7.875,10.551v3.02H566.3v-3.02
			c8.038,0.252,7.875-3.683,7.875-10.551V674.21c0-6.868,0.163-10.804-7.875-10.556v-3.017h28.561v3.017
			c-8.042-0.248-7.875,3.688-7.875,10.556v11.643h24.792V674.21c0-6.868,0.081-10.804-7.957-10.556v-3.017h28.639v3.017
			c-8.04-0.248-7.868,3.688-7.868,10.556v28.308c0,6.868-0.172,10.803,7.868,10.551v3.02H603.82v-3.02
			c8.038,0.252,7.957-3.683,7.957-10.551v-12.477h-24.792V702.518z"/>
		<path fill="#4E182A" d="M728.866,739.555c0,6.868-0.166,10.806,7.873,10.551v3.018h-28.558v-3.018
			c8.037,0.255,7.873-3.683,7.873-10.551v-28.307c0-6.868,0.164-10.801-7.873-10.554v-3.018h28.558v3.018
			c-8.039-0.247-7.873,3.686-7.873,10.554v11.641h24.79v-11.641c0-6.868,0.08-10.801-7.955-10.554v-3.018h28.64v3.018
			c-8.041-0.247-7.869,3.686-7.869,10.554v28.307c0,6.868-0.172,10.806,7.869,10.551v3.018h-28.64v-3.018
			c8.035,0.255,7.955-3.683,7.955-10.551V727.08h-24.79V739.555z"/>
		<path fill="#CCAD5E" d="M708.181,697.678h-10.262h-8.233h-9.67c-0.845,0-1.527,0.682-1.527,1.523c0,0.527,0.283,0.967,0.687,1.242
			c0.114,0.076,0.225,0.145,0.357,0.184c6.813,3.846,11.333,11.167,11.333,19.659c0,4.213-1.172,8.146-3.168,11.524
			c-2.096-5.973-5.701-11.978-11.308-17.578c-4.596-4.595-8.545-8.447-11.936-11.72c-1.356-1.306-2.61-2.511-3.791-3.644
			c-0.481-0.461-0.95-0.911-1.407-1.348c-1.791-1.718-3.376-3.238-4.76-4.591c-5.667-5.536-8.084-8.363-8.666-11.35
			c-0.024-0.203-0.076-0.397-0.092-0.607c-0.03-0.38-0.057-0.763-0.057-1.152c0-7.823,6.34-14.162,14.162-14.162
			c5.828,0,10.822,3.526,12.994,8.559c0.116,0.269,0.221,0.543,0.321,0.822c0.07,0.128,0.152,0.237,0.236,0.323
			c0.947,0.943,2.597-0.432,3.84-2.464c0.687-1.118,1.246-2.432,1.491-3.658c0.371-1.855-1.006-3.473-2.538-4.661
			c-1.104-0.758-2.287-1.42-3.529-1.972c-2.893-1.289-6.116-1.971-9.457-1.953v-0.016H632.46v3.015h19.245
			c-8.386,4.656-13.093,13.981-10.91,23.183c0.706,4.972,2.481,9.115,5.57,13.524c-12.392,9.545-18.117,23.748-13.031,35.282
			c6.342,14.378,27.072,19.157,46.304,10.677c0.749-0.331,1.481-0.68,2.201-1.041c3.813,11.193-0.054,18.503-5.477,21.624
			c-8.849,5.082-16.356,4.508-22.072-1.027c-5.716-5.538-7.292-0.273-7.859,1.948c-0.565,2.208-4.214,10.424,9.723,10.424
			c13.936,0,26.204-5.802,31.121-18.102c2.24-5.618,3.351-12.491,2.441-19.751c12.552-9.546,18.381-23.858,13.262-35.467
			c-0.688-1.561-1.467-2.948-2.394-4.235h7.597V697.678z M668.157,742.993c-12.541,0-22.707-10.167-22.707-22.707
			c0-5.507,1.964-10.557,5.228-14.491c3.414,3.919,7.775,8.305,13.246,13.775c7.64,7.638,12.612,14.423,15.619,20.34
			C676.192,741.858,672.312,742.993,668.157,742.993"/>
	</g>
	<g>
		<path fill="#4E182A" d="M565.758,792.468h7.064v1.509h-5.407v2.621h4.795v1.509h-4.795v3.872h-1.657V792.468z"/>
		<path fill="#4E182A" d="M585.781,792.4h1.549l4.185,9.578h-1.767l-0.963-2.296h-4.498l-0.978,2.296h-1.711L585.781,792.4z
			 M588.172,798.202l-1.644-3.804l-1.631,3.804H588.172z"/>
		<path fill="#4E182A" d="M604.23,802.114c-0.734,0-1.436-0.125-2.105-0.374c-0.671-0.25-1.291-0.632-1.861-1.148l1.005-1.195
			c0.462,0.398,0.929,0.705,1.399,0.917c0.472,0.214,1.006,0.32,1.603,0.32c0.518,0,0.926-0.108,1.23-0.326
			c0.303-0.218,0.455-0.508,0.455-0.87v-0.028c0-0.171-0.029-0.323-0.088-0.455s-0.169-0.255-0.327-0.374
			c-0.159-0.118-0.377-0.227-0.654-0.326c-0.277-0.1-0.638-0.199-1.083-0.299c-0.509-0.118-0.96-0.252-1.355-0.4
			c-0.395-0.149-0.726-0.331-0.994-0.544c-0.268-0.212-0.473-0.473-0.612-0.782c-0.141-0.307-0.211-0.679-0.211-1.113v-0.028
			c0-0.408,0.081-0.782,0.243-1.121c0.162-0.34,0.383-0.629,0.667-0.87c0.282-0.24,0.622-0.428,1.02-0.563
			c0.398-0.137,0.833-0.204,1.304-0.204c0.697,0,1.324,0.102,1.881,0.305c0.556,0.204,1.079,0.5,1.569,0.89l-0.897,1.263
			c-0.435-0.316-0.865-0.559-1.291-0.726s-0.856-0.252-1.291-0.252c-0.489,0-0.87,0.108-1.141,0.327
			c-0.271,0.217-0.408,0.484-0.408,0.801v0.028c0,0.181,0.031,0.341,0.095,0.482c0.064,0.14,0.18,0.267,0.348,0.38
			c0.167,0.114,0.399,0.22,0.694,0.32c0.294,0.099,0.669,0.204,1.124,0.313c0.499,0.126,0.942,0.267,1.328,0.421
			s0.706,0.342,0.96,0.563c0.253,0.223,0.446,0.481,0.579,0.775c0.131,0.294,0.196,0.636,0.196,1.025v0.026
			c0,0.444-0.083,0.843-0.248,1.197c-0.167,0.353-0.398,0.651-0.695,0.896c-0.295,0.245-0.653,0.43-1.069,0.557
			C605.186,802.05,604.728,802.114,604.23,802.114z"/>
		<path fill="#4E182A" d="M617.326,792.468h1.657v3.954h4.565v-3.954h1.657v9.51h-1.657v-4.008h-4.565v4.008h-1.657V792.468z"/>
		<path fill="#4E182A" d="M635.49,792.468h1.657v9.51h-1.657V792.468z"/>
		<path fill="#4E182A" d="M651.982,802.141c-0.733,0-1.404-0.129-2.01-0.387c-0.607-0.258-1.128-0.609-1.562-1.053
			c-0.436-0.444-0.775-0.962-1.019-1.556c-0.245-0.592-0.367-1.224-0.367-1.895v-0.026c0-0.67,0.122-1.303,0.367-1.896
			c0.244-0.592,0.588-1.113,1.032-1.562s0.969-0.803,1.575-1.066c0.606-0.263,1.277-0.395,2.011-0.395
			c0.734,0,1.404,0.129,2.012,0.387c0.606,0.258,1.126,0.609,1.562,1.053c0.434,0.444,0.774,0.962,1.019,1.556
			c0.244,0.593,0.367,1.224,0.367,1.895v0.028c0,0.669-0.123,1.301-0.367,1.895c-0.245,0.593-0.589,1.114-1.032,1.562
			c-0.444,0.449-0.97,0.805-1.576,1.067C653.386,802.009,652.715,802.141,651.982,802.141z M652.009,800.605
			c0.469,0,0.899-0.088,1.292-0.264c0.392-0.177,0.728-0.417,1.007-0.72c0.28-0.304,0.498-0.66,0.656-1.067
			c0.158-0.407,0.237-0.842,0.237-1.304v-0.026c0-0.462-0.08-0.899-0.237-1.311c-0.158-0.413-0.379-0.771-0.664-1.073
			c-0.283-0.304-0.624-0.546-1.021-0.727c-0.396-0.181-0.83-0.271-1.299-0.271s-0.899,0.088-1.292,0.265
			c-0.392,0.176-0.729,0.416-1.008,0.72c-0.28,0.303-0.498,0.658-0.656,1.066c-0.158,0.408-0.236,0.842-0.236,1.304v0.028
			c0,0.462,0.079,0.898,0.236,1.311c0.158,0.411,0.379,0.77,0.664,1.072c0.283,0.304,0.625,0.546,1.021,0.727
			C651.107,800.515,651.541,800.605,652.009,800.605z"/>
		<path fill="#4E182A" d="M666.736,792.468h1.545l5.084,6.575v-6.575h1.657v9.51h-1.396l-5.232-6.765v6.765h-1.657V792.468z"/>
		<path fill="#4E182A" d="M697.031,792.468h1.657v3.954h4.563v-3.954h1.657v9.51h-1.657v-4.008h-4.563v4.008h-1.657V792.468z"/>
		<path fill="#4E182A" d="M719.634,802.141c-0.732,0-1.403-0.129-2.009-0.387c-0.608-0.258-1.129-0.609-1.563-1.053
			c-0.434-0.444-0.774-0.962-1.018-1.556c-0.246-0.592-0.367-1.224-0.367-1.895v-0.026c0-0.67,0.121-1.303,0.367-1.896
			c0.243-0.592,0.589-1.113,1.032-1.562c0.444-0.449,0.968-0.803,1.575-1.066c0.605-0.263,1.276-0.395,2.01-0.395
			c0.735,0,1.403,0.129,2.012,0.387c0.607,0.258,1.126,0.609,1.563,1.053c0.435,0.444,0.774,0.962,1.018,1.556
			c0.244,0.593,0.367,1.224,0.367,1.895v0.028c0,0.669-0.123,1.301-0.367,1.895c-0.243,0.593-0.588,1.114-1.032,1.562
			c-0.443,0.449-0.97,0.805-1.575,1.067C721.039,802.009,720.368,802.141,719.634,802.141z M719.662,800.605
			c0.47,0,0.899-0.088,1.292-0.264c0.394-0.177,0.729-0.417,1.009-0.72c0.279-0.304,0.497-0.66,0.656-1.067
			c0.156-0.407,0.236-0.842,0.236-1.304v-0.026c0-0.462-0.08-0.899-0.236-1.311c-0.159-0.413-0.379-0.771-0.664-1.073
			c-0.284-0.304-0.624-0.546-1.02-0.727c-0.398-0.181-0.83-0.271-1.301-0.271c-0.468,0-0.899,0.088-1.29,0.265
			c-0.394,0.176-0.729,0.416-1.009,0.72c-0.279,0.303-0.499,0.658-0.655,1.066c-0.159,0.408-0.237,0.842-0.237,1.304v0.028
			c0,0.462,0.078,0.898,0.237,1.311c0.156,0.411,0.378,0.77,0.663,1.072c0.282,0.304,0.625,0.546,1.021,0.727
			C718.761,800.515,719.193,800.605,719.662,800.605z"/>
		<path fill="#4E182A" d="M738.288,802.127c-0.615,0-1.172-0.088-1.672-0.265c-0.496-0.176-0.924-0.441-1.275-0.795
			c-0.354-0.354-0.625-0.79-0.815-1.311c-0.19-0.52-0.285-1.125-0.285-1.813v-5.476h1.657v5.407c0,0.888,0.213,1.563,0.642,2.025
			c0.428,0.462,1.021,0.692,1.775,0.692c0.748,0,1.334-0.222,1.764-0.666c0.427-0.444,0.642-1.105,0.642-1.983v-5.476h1.657v5.394
			c0,0.707-0.097,1.327-0.292,1.861s-0.468,0.98-0.822,1.339c-0.353,0.357-0.779,0.625-1.283,0.801
			C739.477,802.04,738.913,802.127,738.288,802.127z"/>
		<path fill="#4E182A" d="M755.759,802.114c-0.736,0-1.438-0.125-2.106-0.374c-0.671-0.25-1.29-0.632-1.862-1.148l1.006-1.195
			c0.461,0.398,0.929,0.705,1.399,0.917c0.471,0.214,1.006,0.32,1.602,0.32c0.519,0,0.927-0.108,1.23-0.326
			c0.304-0.218,0.456-0.508,0.456-0.87v-0.028c0-0.171-0.029-0.323-0.09-0.455c-0.058-0.131-0.169-0.255-0.325-0.374
			c-0.159-0.118-0.379-0.227-0.654-0.326c-0.277-0.1-0.639-0.199-1.083-0.299c-0.509-0.118-0.96-0.252-1.355-0.4
			c-0.396-0.149-0.726-0.331-0.994-0.544c-0.268-0.212-0.473-0.473-0.612-0.782c-0.143-0.307-0.212-0.679-0.212-1.113v-0.028
			c0-0.408,0.082-0.782,0.243-1.121c0.162-0.34,0.384-0.629,0.666-0.87c0.282-0.24,0.622-0.428,1.021-0.563
			c0.397-0.137,0.832-0.204,1.305-0.204c0.697,0,1.324,0.102,1.882,0.305c0.555,0.204,1.078,0.5,1.567,0.89l-0.897,1.263
			c-0.434-0.316-0.863-0.559-1.29-0.726c-0.425-0.167-0.856-0.252-1.291-0.252c-0.486,0-0.868,0.108-1.141,0.327
			c-0.271,0.217-0.407,0.484-0.407,0.801v0.028c0,0.181,0.031,0.341,0.096,0.482c0.063,0.14,0.179,0.267,0.348,0.38
			c0.167,0.114,0.398,0.22,0.694,0.32c0.295,0.099,0.669,0.204,1.125,0.313c0.496,0.126,0.94,0.267,1.326,0.421
			s0.707,0.342,0.96,0.563c0.253,0.223,0.446,0.481,0.579,0.775c0.133,0.294,0.197,0.636,0.197,1.025v0.026
			c0,0.444-0.084,0.843-0.248,1.197c-0.166,0.353-0.398,0.651-0.694,0.896c-0.297,0.245-0.654,0.43-1.069,0.557
			C756.714,802.05,756.255,802.114,755.759,802.114z"/>
		<path fill="#4E182A" d="M768.854,792.468h7.039v1.509h-5.382v2.445h4.769v1.507h-4.769v2.542h5.449v1.507h-7.106V792.468z"/>
	</g>
</g>
<g>
	<g>
		<path fill="#4E182A" d="M337.702,954.56c0,5.622-0.137,8.838,6.442,8.638v2.473h-23.381v-2.473c6.583,0.2,6.447-3.016,6.447-8.638
			v-23.182c0-5.623,0.136-8.842-6.447-8.638v-2.462h23.381v2.462c-6.579-0.204-6.442,3.015-6.442,8.638v9.534h20.295v-9.534
			c0-5.623,0.07-8.842-6.513-8.638v-2.462h23.451v2.462c-6.583-0.204-6.448,3.015-6.448,8.638v23.182
			c0,5.622-0.135,8.838,6.448,8.638v2.473h-23.451v-2.473c6.583,0.2,6.513-3.016,6.513-8.638v-10.219h-20.295V954.56z"/>
		<path fill="#4E182A" d="M403.162,953.664c-0.615,1.721-1.643,3.913-1.643,5.763c0,3.354,3.153,3.566,5.689,3.771v2.468h-16.457
			v-2.468c5.627-0.07,7.614-6.651,9.397-10.898l13.577-32.643h3.293l14.122,35.242c0.757,1.854,2.126,5.283,3.497,6.652
			c1.236,1.099,3.018,1.442,4.666,1.646v2.468h-23.114v-2.468c2.062-0.271,5.695-0.136,5.695-3.082c0-1.1-0.891-3.502-1.305-4.534
			l-1.438-3.899h-15.15L403.162,953.664z M417.774,948.251l-6.039-15.774l-6.444,15.774H417.774z"/>
		<path fill="#4E182A" d="M471.993,941.253h2.604c3.703,0,6.034-2.054,6.994-7.539h2.745c-0.07,3.082-0.206,6.103-0.276,9.188
			c0.07,2.946,0.206,5.896,0.276,8.847h-2.745c-0.411-4.255-2.329-7.203-6.718-7.337h-2.812v10.15c0,6.102-0.068,8.839,6.856,8.636
			v2.471h-23.792v-2.471c6.583,0.203,6.444-3.016,6.444-8.636V931.38c0-5.627,0.138-8.844-6.444-8.638v-2.468h37.094l0.617,11.79
			h-2.74c-1.713-7.884-6.858-8.634-13.783-8.634c-4.802,0-4.32,0.13-4.32,4.796V941.253z"/>
		<path fill="#4E182A" d="M515.107,965.53h-3.015v-14.263h2.739c1.922,6.24,5.078,12,12.689,12c3.978,0,7.817-2.604,7.817-6.859
			c0-6.377-6.583-8.093-11.384-10.147c-6.171-2.675-11.179-6.104-11.179-13.645c0-8.436,6.445-12.96,14.402-12.96
			c3.703,0,7.544,0.823,10.286,3.352l0.891-2.667h2.95l0.411,12.34h-2.95c-1.232-5.283-5.143-9.874-11.108-9.874
			c-3.359,0-6.787,1.92-6.787,5.626c0,5.14,5.208,6.582,9.117,8.361c7.34,3.155,14.264,6.382,14.264,15.568
			c0,9.254-7.817,14.059-16.253,14.059c-4.39,0-8.846-1.51-11.931-4.663L515.107,965.53z"/>
		<path fill="#4E182A" d="M573.854,953.664c-0.615,1.721-1.644,3.913-1.644,5.763c0,3.354,3.154,3.566,5.69,3.771v2.468h-16.457
			v-2.468c5.624-0.07,7.616-6.651,9.397-10.898l13.579-32.643h3.29l14.124,35.242c0.758,1.854,2.127,5.283,3.498,6.652
			c1.234,1.099,3.018,1.442,4.665,1.646v2.468h-23.114v-2.468c2.062-0.271,5.697-0.136,5.697-3.082c0-1.1-0.893-3.502-1.307-4.534
			l-1.44-3.899h-15.147L573.854,953.664z M588.462,948.251l-6.033-15.774l-6.445,15.774H588.462z"/>
		<path fill="#4E182A" d="M765.466,954.562c0,5.624-0.14,8.846,6.445,8.636v2.473h-23.384v-2.473
			c6.583,0.21,6.447-3.012,6.447-8.636v-23.181c0-5.621,0.136-8.845-6.447-8.641v-2.463h23.384v2.463
			c-6.585-0.204-6.445,3.02-6.445,8.641v9.531h20.295v-9.531c0-5.621,0.071-8.845-6.513-8.641v-2.463H802.7v2.463
			c-6.583-0.204-6.446,3.02-6.446,8.641v23.181c0,5.624-0.137,8.846,6.446,8.636v2.473h-23.451v-2.473
			c6.584,0.21,6.513-3.012,6.513-8.636v-10.221h-20.295V954.562z"/>
		<path fill="#4E182A" d="M821.878,920.276h23.521v2.461c-6.655-0.202-6.582,3.155-6.582,8.78v16.527
			c0,8.711,2.058,13.922,11.86,13.922c8.569,0,13.098-4.39,13.098-12.686v-14.265c0-2.469,0.067-7.337-1.236-9.464
			c-1.162-1.922-3.221-2.605-5.278-2.815v-2.461h16.115v2.461c-2.057,0.344-4.185,0.83-5.212,2.815
			c-1.235,2.402-0.959,6.792-0.959,9.464v12.823c0,12.412-6.445,18.583-18.996,18.583c-12.001,0-19.883-4.189-19.883-18.448v-16.457
			c0-5.689,0.205-8.78-6.447-8.78V920.276z"/>
		<path fill="#4E182A" d="M902.43,930.899h-0.138v21.056c0,2.193,0,6.583,1.03,8.503c1.097,2.054,3.43,2.541,5.486,2.739v2.468
			h-16.321v-2.468c2.604-0.407,5.209-0.686,5.896-3.563c0.478-1.919,0.478-4.867,0.478-6.582v-27.289
			c-1.234-2.404-3.906-2.815-6.373-3.023v-2.462h16.046l13.441,32.021l12.337-32.021h16.457v2.462
			c-6.647-0.204-6.371,3.153-6.444,8.78v21.532c0,1.715,0,4.663,0.481,6.582c0.688,2.878,3.291,3.156,5.898,3.563v2.468h-23.246
			v-2.468c2.602-0.407,5.211-0.686,5.894-3.563c0.484-1.919,0.484-4.867,0.484-6.582v-21.671h-0.141l-13.647,34.284h-3.29
			L902.43,930.899z"/>
		<path fill="#4E182A" d="M978.999,953.669c-0.615,1.716-1.641,3.908-1.641,5.758c0,3.363,3.151,3.572,5.688,3.771v2.468h-16.455
			v-2.468c5.621-0.066,7.611-6.651,9.392-10.898l13.579-32.643h3.292l14.126,35.247c0.754,1.855,2.122,5.278,3.497,6.652
			c1.231,1.094,3.016,1.443,4.666,1.642v2.468h-23.114v-2.468c2.062-0.271,5.694-0.136,5.694-3.082c0-1.099-0.894-3.502-1.31-4.524
			l-1.435-3.909h-15.152L978.999,953.669z M993.604,948.251l-6.031-15.774l-6.446,15.774H993.604z"/>
		<path fill="#CCAD5E" d="M709.343,923.406h-8.217h-6.588h-7.737c-0.673,0-1.221,0.542-1.221,1.22c0,0.422,0.222,0.776,0.552,0.991
			c0.085,0.061,0.175,0.117,0.278,0.15c5.451,3.075,9.069,8.938,9.069,15.731c0,3.371-0.933,6.516-2.531,9.224
			c-1.676-4.777-4.567-9.588-9.051-14.069c-3.675-3.673-6.835-6.759-9.557-9.382c-1.08-1.041-2.08-2.005-3.027-2.914
			c-0.387-0.367-0.763-0.732-1.129-1.078c-1.43-1.374-2.703-2.592-3.809-3.674c-4.533-4.429-6.466-6.695-6.934-9.082
			c-0.02-0.166-0.059-0.32-0.075-0.484c-0.021-0.304-0.046-0.618-0.046-0.93c0-6.256,5.072-11.328,11.33-11.328
			c4.668,0,8.665,2.819,10.404,6.847c0.099,0.222,0.178,0.437,0.255,0.656c0.059,0.105,0.119,0.196,0.192,0.262
			c0.759,0.755,2.082-0.346,3.076-1.973c0.54-0.897,0.996-1.944,1.192-2.929c0.291-1.479-0.808-2.775-2.033-3.726
			c-0.888-0.61-1.831-1.139-2.825-1.585c-3.546-1.573-7.708-2.046-11.89-1.045c-9.655,2.286-15.747,11.438-13.611,20.439
			c0.564,3.984,1.988,7.294,4.458,10.825c-9.918,7.639-14.495,19.004-10.428,28.235c5.077,11.512,21.669,15.334,37.058,8.544
			c0.598-0.263,1.183-0.545,1.761-0.822c3.053,8.947-0.048,14.804-4.386,17.298c-7.079,4.063-13.092,3.607-17.664-0.827
			c-4.57-4.425-5.836-0.215-6.288,1.563c-0.456,1.771-3.373,8.342,7.779,8.342c11.15,0,20.974-4.645,24.904-14.486
			c1.796-4.497,2.68-9.991,1.956-15.805c10.047-7.642,14.713-19.096,10.616-28.387c-0.552-1.248-1.183-2.357-1.919-3.394h6.083
			V923.406z M677.313,959.672c-10.036,0-18.175-8.131-18.175-18.173c0-4.409,1.57-8.448,4.18-11.595
			c2.732,3.135,6.225,6.645,10.604,11.021c6.109,6.118,10.089,11.541,12.506,16.283
			C683.738,958.766,680.633,959.672,677.313,959.672"/>
	</g>
	<g>
		<path fill="#4E182A" d="M525.686,1001.708h9.504v2.029h-7.274v3.526h6.452v2.029h-6.452v5.209h-2.229V1001.708z"/>
		<path fill="#4E182A" d="M552.625,1001.617h2.083l5.63,12.885h-2.378l-1.296-3.09h-6.051l-1.315,3.09h-2.303L552.625,1001.617z
			 M555.841,1009.42l-2.211-5.115l-2.194,5.115H555.841z"/>
		<path fill="#4E182A" d="M577.444,1014.685c-0.988,0-1.932-0.17-2.833-0.503c-0.902-0.337-1.736-0.851-2.504-1.546l1.353-1.607
			c0.621,0.536,1.249,0.949,1.881,1.234c0.635,0.286,1.354,0.429,2.157,0.429c0.696,0,1.247-0.144,1.655-0.438
			c0.407-0.293,0.612-0.683,0.612-1.17v-0.038c0-0.229-0.04-0.434-0.119-0.612c-0.08-0.176-0.228-0.341-0.44-0.501
			c-0.214-0.159-0.508-0.304-0.879-0.438c-0.373-0.134-0.858-0.269-1.457-0.402c-0.685-0.158-1.292-0.338-1.824-0.538
			c-0.531-0.201-0.977-0.444-1.337-0.731c-0.36-0.286-0.637-0.637-0.824-1.053c-0.189-0.413-0.285-0.912-0.285-1.497v-0.037
			c0-0.549,0.109-1.052,0.327-1.508c0.217-0.457,0.516-0.848,0.897-1.171c0.379-0.321,0.836-0.574,1.372-0.757
			c0.535-0.183,1.12-0.274,1.754-0.274c0.937,0,1.781,0.138,2.531,0.412c0.747,0.272,1.451,0.672,2.11,1.196l-1.207,1.699
			c-0.584-0.427-1.163-0.752-1.736-0.978c-0.572-0.226-1.152-0.339-1.736-0.339c-0.657,0-1.169,0.146-1.535,0.439
			c-0.365,0.293-0.549,0.65-0.549,1.078v0.038c0,0.242,0.042,0.458,0.128,0.648c0.086,0.188,0.242,0.357,0.468,0.51
			c0.226,0.153,0.537,0.297,0.934,0.432c0.396,0.132,0.901,0.272,1.512,0.42c0.671,0.171,1.268,0.358,1.787,0.566
			c0.519,0.207,0.949,0.461,1.292,0.757c0.341,0.3,0.601,0.647,0.779,1.044c0.177,0.396,0.264,0.854,0.264,1.379v0.035
			c0,0.598-0.112,1.135-0.334,1.61c-0.224,0.476-0.536,0.875-0.935,1.206c-0.397,0.328-0.878,0.577-1.438,0.75
			C578.73,1014.6,578.115,1014.685,577.444,1014.685z"/>
		<path fill="#4E182A" d="M595.063,1001.708h2.229v5.318h6.143v-5.318h2.228v12.794h-2.228v-5.392h-6.143v5.392h-2.229V1001.708z"/>
		<path fill="#4E182A" d="M619.5,1001.708h2.23v12.794h-2.23V1001.708z"/>
		<path fill="#4E182A" d="M641.688,1014.72c-0.987,0-1.89-0.172-2.704-0.52c-0.817-0.347-1.52-0.82-2.103-1.416
			c-0.585-0.598-1.042-1.296-1.371-2.095c-0.328-0.796-0.493-1.646-0.493-2.548v-0.036c0-0.903,0.165-1.753,0.493-2.55
			c0.329-0.799,0.792-1.498,1.39-2.103c0.596-0.604,1.303-1.08,2.118-1.435c0.817-0.353,1.719-0.53,2.707-0.53
			s1.888,0.175,2.707,0.521c0.814,0.349,1.515,0.819,2.099,1.418c0.585,0.596,1.043,1.295,1.372,2.092
			c0.329,0.799,0.494,1.647,0.494,2.548v0.039c0,0.9-0.166,1.751-0.494,2.55c-0.329,0.797-0.793,1.498-1.389,2.1
			c-0.597,0.604-1.304,1.083-2.121,1.438C643.577,1014.544,642.675,1014.72,641.688,1014.72z M641.725,1012.655
			c0.63,0,1.209-0.119,1.738-0.354c0.527-0.239,0.979-0.563,1.355-0.97c0.376-0.409,0.67-0.888,0.883-1.436s0.32-1.134,0.32-1.754
			v-0.036c0-0.621-0.107-1.21-0.32-1.765s-0.51-1.035-0.892-1.442c-0.381-0.41-0.84-0.736-1.373-0.979
			c-0.533-0.242-1.117-0.365-1.747-0.365c-0.631,0-1.21,0.118-1.737,0.356c-0.528,0.238-0.98,0.56-1.357,0.97
			c-0.377,0.407-0.67,0.885-0.883,1.435c-0.211,0.548-0.318,1.133-0.318,1.752v0.039c0,0.62,0.107,1.209,0.318,1.765
			c0.212,0.552,0.51,1.035,0.892,1.442s0.841,0.734,1.375,0.978C640.511,1012.534,641.095,1012.655,641.725,1012.655z"/>
		<path fill="#4E182A" d="M661.538,1001.708h2.079l6.839,8.845v-8.845h2.229v12.794h-1.879l-7.039-9.102v9.102h-2.229V1001.708z"/>
		<path fill="#4E182A" d="M702.294,1001.708h2.229v5.318h6.14v-5.318h2.229v12.794h-2.229v-5.392h-6.14v5.392h-2.229V1001.708z"/>
		<path fill="#4E182A" d="M732.706,1014.72c-0.986,0-1.889-0.172-2.704-0.52c-0.818-0.347-1.519-0.82-2.103-1.416
			c-0.583-0.598-1.042-1.296-1.37-2.095c-0.33-0.796-0.494-1.646-0.494-2.548v-0.036c0-0.903,0.164-1.753,0.494-2.55
			c0.328-0.799,0.794-1.498,1.39-2.103c0.599-0.604,1.302-1.08,2.119-1.435c0.815-0.353,1.717-0.53,2.704-0.53
			c0.989,0,1.888,0.175,2.706,0.521c0.818,0.349,1.515,0.819,2.103,1.418c0.584,0.596,1.042,1.295,1.368,2.092
			c0.329,0.799,0.494,1.647,0.494,2.548v0.039c0,0.9-0.165,1.751-0.494,2.55c-0.326,0.797-0.79,1.498-1.389,2.1
			c-0.595,0.604-1.304,1.083-2.118,1.438C734.594,1014.544,733.691,1014.72,732.706,1014.72z M732.742,1012.655
			c0.633,0,1.21-0.119,1.738-0.354c0.529-0.239,0.979-0.563,1.356-0.97c0.376-0.409,0.669-0.888,0.883-1.436
			c0.211-0.548,0.318-1.134,0.318-1.754v-0.036c0-0.621-0.107-1.21-0.318-1.765c-0.214-0.555-0.509-1.035-0.894-1.442
			c-0.382-0.41-0.839-0.736-1.371-0.979c-0.536-0.242-1.116-0.365-1.749-0.365c-0.631,0-1.212,0.118-1.737,0.356
			c-0.529,0.238-0.979,0.56-1.355,0.97c-0.378,0.407-0.673,0.885-0.883,1.435c-0.213,0.548-0.318,1.133-0.318,1.752v0.039
			c0,0.62,0.105,1.209,0.318,1.765c0.21,0.552,0.509,1.035,0.893,1.442c0.379,0.407,0.841,0.734,1.373,0.978
			C731.53,1012.534,732.111,1012.655,732.742,1012.655z"/>
		<path fill="#4E182A" d="M757.8,1014.702c-0.828,0-1.577-0.118-2.249-0.356c-0.668-0.238-1.244-0.594-1.716-1.068
			c-0.479-0.478-0.842-1.063-1.098-1.765c-0.257-0.699-0.384-1.514-0.384-2.439v-7.365h2.229v7.273c0,1.194,0.286,2.103,0.863,2.726
			c0.575,0.62,1.373,0.929,2.389,0.929c1.007,0,1.796-0.297,2.373-0.895c0.574-0.597,0.863-1.484,0.863-2.668v-7.365h2.229v7.255
			c0,0.951-0.13,1.786-0.394,2.504c-0.263,0.72-0.629,1.319-1.105,1.802c-0.475,0.479-1.049,0.839-1.727,1.077
			C759.401,1014.584,758.641,1014.702,757.8,1014.702z"/>
		<path fill="#4E182A" d="M781.306,1014.685c-0.99,0-1.936-0.17-2.835-0.503c-0.901-0.337-1.734-0.851-2.505-1.546l1.353-1.607
			c0.621,0.536,1.249,0.949,1.884,1.234c0.633,0.286,1.353,0.429,2.154,0.429c0.697,0,1.246-0.144,1.655-0.438
			c0.409-0.293,0.613-0.683,0.613-1.17v-0.038c0-0.229-0.039-0.434-0.12-0.612c-0.078-0.176-0.228-0.341-0.438-0.501
			c-0.215-0.159-0.511-0.304-0.881-0.438c-0.373-0.134-0.859-0.269-1.457-0.402c-0.685-0.158-1.292-0.338-1.822-0.538
			c-0.534-0.201-0.978-0.444-1.338-0.731c-0.361-0.286-0.637-0.637-0.824-1.053c-0.191-0.413-0.285-0.912-0.285-1.497v-0.037
			c0-0.549,0.11-1.052,0.327-1.508c0.218-0.457,0.516-0.848,0.896-1.171c0.381-0.321,0.838-0.574,1.373-0.757
			s1.119-0.274,1.756-0.274c0.938,0,1.78,0.138,2.531,0.412c0.747,0.272,1.45,0.672,2.108,1.196l-1.208,1.699
			c-0.582-0.427-1.16-0.752-1.734-0.978c-0.571-0.226-1.152-0.339-1.738-0.339c-0.653,0-1.167,0.146-1.534,0.439
			c-0.363,0.293-0.547,0.65-0.547,1.078v0.038c0,0.242,0.042,0.458,0.129,0.648c0.085,0.188,0.24,0.357,0.468,0.51
			c0.224,0.153,0.536,0.297,0.934,0.432c0.396,0.132,0.9,0.272,1.514,0.42c0.668,0.171,1.265,0.358,1.784,0.566
			c0.519,0.207,0.951,0.461,1.292,0.757c0.34,0.3,0.601,0.647,0.778,1.044c0.179,0.396,0.266,0.854,0.266,1.379v0.035
			c0,0.598-0.113,1.135-0.334,1.61c-0.224,0.476-0.535,0.875-0.934,1.206c-0.399,0.328-0.88,0.577-1.438,0.75
			C782.59,1014.6,781.973,1014.685,781.306,1014.685z"/>
		<path fill="#4E182A" d="M798.922,1001.708h9.47v2.029h-7.24v3.289h6.416v2.028h-6.416v3.419h7.332v2.028h-9.562V1001.708z"/>
	</g>
</g>
<g id="Fonts" display="none">
	<rect x="566.24" y="879.812" display="inline" fill="none" width="212.166" height="21.085"/>
	
		<text transform="matrix(1 0 0 1 590.6226 886.3828)" display="inline" fill="#4E182A" font-family="'GothamMedium'" font-size="9" letter-spacing="5">FASHION JEWELRY</text>
	<rect x="456.127" y="838.333" display="inline" fill="none" width="427.394" height="37.622"/>
	
		<text transform="matrix(1 0 0 1 489.8369 864.0381)" display="inline" fill="#4E182A" font-family="'Georgia-Bold'" font-size="34" letter-spacing="6">HAFSA &amp; HUMA</text>
</g>
<rect display="none" fill="#E5D0A5" width="121.5" height="121.5"/>
<path display="none" fill="#4E182A" d="M94.316,43.339H86.1h-6.588h-7.737c-0.673,0-1.221,0.542-1.221,1.22
	c0,0.422,0.222,0.776,0.552,0.991c0.085,0.061,0.175,0.117,0.278,0.15c5.451,3.075,9.069,8.938,9.069,15.731
	c0,3.371-0.933,6.516-2.531,9.224c-1.676-4.777-4.567-9.588-9.051-14.069c-3.675-3.673-6.835-6.759-9.557-9.382
	c-1.08-1.041-2.08-2.005-3.027-2.914c-0.387-0.367-0.763-0.732-1.129-1.078c-1.43-1.374-2.703-2.592-3.809-3.674
	c-4.533-4.429-6.466-6.695-6.934-9.082c-0.02-0.166-0.059-0.32-0.075-0.484c-0.021-0.304-0.046-0.618-0.046-0.93
	c0-6.256,5.072-11.328,11.33-11.328c4.668,0,8.665,2.819,10.404,6.847c0.099,0.222,0.178,0.437,0.255,0.656
	c0.059,0.105,0.119,0.196,0.192,0.262c0.759,0.755,2.082-0.346,3.076-1.973c0.54-0.897,0.996-1.944,1.192-2.929
	c0.291-1.479-0.808-2.775-2.033-3.726c-0.888-0.61-1.831-1.139-2.825-1.585c-3.546-1.573-7.708-2.046-11.89-1.045
	C44.34,16.507,38.249,25.66,40.384,34.661c0.564,3.984,1.988,7.294,4.458,10.825c-9.918,7.639-14.495,19.004-10.428,28.235
	c5.077,11.512,21.669,15.334,37.058,8.544c0.598-0.263,1.183-0.545,1.761-0.822c3.053,8.947-0.048,14.804-4.386,17.298
	c-7.079,4.063-13.092,3.607-17.664-0.827c-4.57-4.425-5.836-0.215-6.288,1.563c-0.456,1.771-3.373,8.342,7.779,8.342
	c11.15,0,20.974-4.645,24.904-14.486c1.796-4.497,2.68-9.991,1.956-15.805c10.047-7.642,14.713-19.096,10.616-28.387
	c-0.552-1.248-1.183-2.357-1.919-3.394h6.083V43.339z M62.286,79.604c-10.036,0-18.175-8.131-18.175-18.173
	c0-4.409,1.57-8.448,4.18-11.595c2.732,3.135,6.225,6.645,10.604,11.021c6.109,6.118,10.089,11.541,12.506,16.283
	C68.711,78.698,65.606,79.604,62.286,79.604"/>
<path fill="#CCAD5E" d="M99.534,40.378H89.92h-7.708H73.16c-0.787,0-1.428,0.634-1.428,1.427c0,0.494,0.259,0.908,0.646,1.16
	c0.1,0.071,0.205,0.137,0.326,0.176c6.378,3.598,10.611,10.458,10.611,18.406c0,3.944-1.091,7.623-2.962,10.792
	c-1.96-5.589-5.344-11.218-10.589-16.461c-4.299-4.297-7.997-7.908-11.181-10.977c-1.264-1.218-2.434-2.346-3.542-3.41
	c-0.452-0.43-0.892-0.857-1.321-1.261c-1.672-1.607-3.162-3.032-4.457-4.299c-5.304-5.182-7.565-7.833-8.113-10.626
	c-0.023-0.194-0.068-0.374-0.087-0.566c-0.025-0.356-0.054-0.723-0.054-1.088c0-7.32,5.935-13.254,13.256-13.254
	c5.461,0,10.138,3.298,12.173,8.01c0.115,0.26,0.208,0.512,0.298,0.768c0.069,0.123,0.14,0.229,0.225,0.307
	c0.888,0.883,2.436-0.404,3.599-2.309c0.632-1.049,1.166-2.274,1.396-3.426c0.34-1.731-0.945-3.247-2.379-4.359
	c-1.039-0.714-2.143-1.333-3.306-1.854c-4.148-1.841-9.018-2.394-13.911-1.223C41.062,8.985,33.936,19.693,36.434,30.225
	c0.66,4.662,2.326,8.534,5.216,12.665c-11.604,8.938-16.959,22.235-12.201,33.035c5.94,13.469,25.353,17.941,43.357,9.997
	c0.699-0.308,1.384-0.638,2.06-0.962c3.572,10.468-0.056,17.32-5.131,20.238c-8.282,4.753-15.317,4.221-20.666-0.968
	c-5.347-5.177-6.829-0.251-7.356,1.828c-0.534,2.071-3.946,9.76,9.102,9.76c13.046,0,24.539-5.434,29.138-16.949
	c2.102-5.261,3.135-11.689,2.289-18.491c11.755-8.94,17.214-22.342,12.421-33.212c-0.646-1.46-1.383-2.758-2.245-3.971h7.117V40.378
	z M62.059,82.809c-11.742,0-21.265-9.513-21.265-21.262c0-5.159,1.837-9.884,4.891-13.566c3.196,3.668,7.283,7.774,12.406,12.896
	c7.148,7.158,11.804,13.502,14.632,19.051C69.576,81.748,65.943,82.809,62.059,82.809"/>
</svg>
