<?xml version="1.0" encoding="utf-8"?>
<!-- Generator: Adobe Illustrator 13.0.0, SVG Export Plug-In . SVG Version: 6.00 Build 14948)  -->
<!DOCTYPE svg PUBLIC "-//W3C//DTD SVG 1.1//EN" "http://www.w3.org/Graphics/SVG/1.1/DTD/svg11.dtd">
<svg version="1.1" id="Layer_1" xmlns="http://www.w3.org/2000/svg" xmlns:xlink="http://www.w3.org/1999/xlink" x="0px" y="0px"
	 width="316.5px" height="61.5px" viewBox="0 0 316.5 61.5" enable-background="new 0 0 316.5 61.5" xml:space="preserve">
<g>
	<g>
		<path fill="#4E182A" d="M12.341,30.751c0,2.476-0.06,3.892,2.836,3.802v1.09H4.886v-1.09c2.897,0.09,2.837-1.326,2.837-3.802
			V20.548c0-2.476,0.06-3.893-2.837-3.802v-1.084h10.292v1.084c-2.896-0.091-2.836,1.326-2.836,3.802v4.196h8.933v-4.196
			c0-2.476,0.031-3.893-2.867-3.802v-1.084H28.73v1.084c-2.897-0.091-2.837,1.326-2.837,3.802v10.203
			c0,2.476-0.06,3.892,2.837,3.802v1.09H18.407v-1.09c2.898,0.09,2.867-1.326,2.867-3.802v-4.497h-8.933V30.751z"/>
		<path fill="#4E182A" d="M41.154,30.358c-0.271,0.757-0.723,1.722-0.723,2.535c0,1.478,1.388,1.569,2.504,1.659v1.087h-7.244
			v-1.087c2.476-0.03,3.351-2.928,4.136-4.797l5.976-14.366h1.45L53.469,30.9c0.333,0.816,0.936,2.325,1.539,2.929
			c0.544,0.481,1.329,0.634,2.054,0.724v1.088H46.888v-1.088c0.907-0.119,2.507-0.059,2.507-1.354c0-0.484-0.393-1.543-0.575-1.996
			l-0.632-1.716H41.52L41.154,30.358z M47.586,27.975l-2.658-6.942l-2.836,6.942H47.586z"/>
		<path fill="#4E182A" d="M71.45,24.895h1.146c1.63,0,2.656-0.904,3.079-3.318h1.208c-0.03,1.357-0.091,2.687-0.121,4.044
			c0.03,1.296,0.091,2.595,0.121,3.895h-1.208c-0.182-1.874-1.025-3.171-2.958-3.229H71.48v4.467c0,2.686-0.03,3.891,3.017,3.801
			v1.09H64.026v-1.09c2.897,0.09,2.836-1.326,2.836-3.801V20.548c0-2.476,0.061-3.893-2.836-3.8V15.66h16.327l0.272,5.189h-1.206
			c-0.754-3.471-3.019-3.8-6.067-3.8c-2.113,0-1.901,0.057-1.901,2.11L71.45,24.895L71.45,24.895z"/>
		<path fill="#4E182A" d="M90.428,35.581H89.1v-6.278h1.206c0.846,2.747,2.235,5.282,5.584,5.282c1.751,0,3.441-1.147,3.441-3.021
			c0-2.807-2.897-3.562-5.011-4.466c-2.716-1.177-4.92-2.687-4.92-6.006c0-3.713,2.836-5.703,6.339-5.703
			c1.629,0,3.32,0.36,4.527,1.475l0.391-1.174h1.299l0.181,5.432h-1.298c-0.543-2.325-2.264-4.347-4.89-4.347
			c-1.479,0-2.987,0.847-2.987,2.477c0,2.264,2.292,2.896,4.013,3.682c3.23,1.389,6.278,2.808,6.278,6.852
			c0,4.073-3.44,6.188-7.154,6.188c-1.932,0-3.894-0.664-5.251-2.054L90.428,35.581z"/>
		<path fill="#4E182A" d="M116.286,30.358c-0.271,0.757-0.724,1.722-0.724,2.535c0,1.478,1.387,1.569,2.504,1.659v1.087h-7.244
			v-1.087c2.476-0.03,3.353-2.928,4.136-4.797l5.977-14.366h1.447l6.217,15.511c0.333,0.816,0.937,2.325,1.54,2.929
			c0.543,0.481,1.328,0.634,2.053,0.724v1.088H122.02v-1.088c0.908-0.119,2.508-0.059,2.508-1.354c0-0.484-0.394-1.543-0.576-1.996
			l-0.634-1.716h-6.667L116.286,30.358z M122.715,27.975l-2.655-6.942l-2.837,6.942H122.715z"/>
		<path fill="#4E182A" d="M200.624,30.752c0,2.477-0.062,3.895,2.838,3.801v1.09H193.17v-1.09c2.896,0.094,2.836-1.324,2.836-3.801
			V20.55c0-2.474,0.063-3.895-2.836-3.804v-1.084h10.292v1.084c-2.897-0.091-2.838,1.33-2.838,3.804v4.194h8.933V20.55
			c0-2.474,0.032-3.895-2.865-3.804v-1.084h10.322v1.084c-2.896-0.091-2.839,1.33-2.839,3.804v10.202
			c0,2.477-0.059,3.895,2.839,3.801v1.09h-10.324v-1.09c2.898,0.094,2.867-1.324,2.867-3.801v-4.498h-8.934L200.624,30.752
			L200.624,30.752z"/>
		<path fill="#4E182A" d="M225.454,15.662h10.354v1.083c-2.931-0.09-2.897,1.389-2.897,3.865v7.272c0,3.835,0.905,6.129,5.221,6.129
			c3.771,0,5.765-1.932,5.765-5.584v-6.279c0-1.086,0.03-3.229-0.543-4.164c-0.513-0.847-1.418-1.146-2.322-1.239v-1.083h7.093
			v1.083c-0.905,0.15-1.842,0.365-2.295,1.239c-0.544,1.058-0.422,2.99-0.422,4.164v5.645c0,5.464-2.839,8.182-8.36,8.182
			c-5.283,0-8.753-1.845-8.753-8.122V20.61c0-2.505,0.091-3.865-2.838-3.865v-1.083H225.454z"/>
		<path fill="#4E182A" d="M260.911,20.337h-0.062v9.269c0,0.964,0,2.896,0.452,3.742c0.482,0.903,1.511,1.119,2.415,1.205v1.088
			h-7.184v-1.088c1.146-0.179,2.292-0.302,2.595-1.566c0.211-0.846,0.211-2.145,0.211-2.897V18.076
			c-0.544-1.058-1.72-1.238-2.806-1.33v-1.084h7.063l5.916,14.094l5.43-14.094h7.244v1.084c-2.927-0.091-2.805,1.388-2.838,3.864
			v9.478c0,0.754,0,2.053,0.213,2.896c0.304,1.267,1.448,1.39,2.597,1.567v1.087h-10.229v-1.087
			c1.144-0.179,2.291-0.302,2.594-1.567c0.213-0.846,0.213-2.144,0.213-2.896V20.55h-0.063l-6.007,15.091h-1.448L260.911,20.337z"/>
		<path fill="#4E182A" d="M294.611,30.359c-0.271,0.756-0.723,1.721-0.723,2.534c0,1.48,1.389,1.573,2.504,1.659v1.087h-7.242
			v-1.087c2.475-0.026,3.351-2.928,4.135-4.797l5.977-14.366h1.45l6.216,15.514c0.333,0.816,0.936,2.322,1.539,2.927
			c0.543,0.48,1.328,0.637,2.056,0.723v1.088h-10.175v-1.088c0.907-0.119,2.508-0.059,2.508-1.354c0-0.484-0.396-1.544-0.578-1.992
			l-0.631-1.72h-6.668L294.611,30.359z M301.041,27.975l-2.655-6.942l-2.837,6.942H301.041z"/>
		<path fill="#CCAD5E" d="M175.922,17.039h-3.615h-2.899H166c-0.297,0-0.537,0.239-0.537,0.538c0,0.184,0.098,0.34,0.243,0.436
			c0.037,0.026,0.076,0.052,0.121,0.065c2.399,1.354,3.993,3.935,3.993,6.924c0,1.484-0.41,2.869-1.114,4.06
			c-0.738-2.102-2.011-4.218-3.983-6.191c-1.619-1.617-3.011-2.974-4.207-4.129c-0.476-0.459-0.916-0.884-1.332-1.283
			c-0.17-0.162-0.336-0.322-0.496-0.475c-0.632-0.604-1.191-1.141-1.678-1.616c-1.995-1.95-2.847-2.947-3.052-3.999
			c-0.009-0.073-0.026-0.141-0.034-0.212c-0.008-0.135-0.02-0.272-0.02-0.41c0-2.754,2.232-4.985,4.987-4.985
			c2.055,0,3.813,1.239,4.58,3.013c0.043,0.099,0.077,0.192,0.111,0.289c0.025,0.046,0.053,0.087,0.085,0.116
			c0.333,0.331,0.915-0.152,1.353-0.869c0.238-0.396,0.439-0.855,0.526-1.29c0.127-0.65-0.356-1.221-0.896-1.639
			c-0.391-0.269-0.808-0.503-1.243-0.697c-1.562-0.693-3.394-0.9-5.234-0.462c-4.25,1.007-6.93,5.035-5.991,8.998
			c0.249,1.753,0.876,3.209,1.962,4.765c-4.364,3.361-6.379,8.364-4.589,12.428c2.234,5.066,9.537,6.749,16.311,3.76
			c0.263-0.113,0.521-0.238,0.776-0.361c1.342,3.938-0.021,6.518-1.933,7.614c-3.116,1.788-5.762,1.587-7.775-0.364
			c-2.011-1.947-2.567-0.095-2.766,0.688c-0.201,0.779-1.485,3.673,3.423,3.673c4.908,0,9.232-2.044,10.963-6.376
			c0.791-1.98,1.18-4.396,0.86-6.957c4.423-3.364,6.476-8.405,4.674-12.495c-0.243-0.549-0.521-1.037-0.846-1.493h2.678
			L175.922,17.039L175.922,17.039z M161.823,33.001c-4.417,0-8-3.578-8-7.999c0-1.94,0.691-3.719,1.84-5.104
			c1.204,1.381,2.739,2.927,4.667,4.853c2.689,2.691,4.439,5.079,5.506,7.167C164.65,32.604,163.285,33.001,161.823,33.001"/>
	</g>
	<g>
		<path fill="#4E182A" d="M95.084,51.505h4.183v0.894h-3.202v1.553h2.839v0.895h-2.839v2.291h-0.981V51.505z"/>
		<path fill="#4E182A" d="M106.941,51.464h0.917l2.479,5.672h-1.047l-0.57-1.36h-2.664l-0.579,1.36h-1.013L106.941,51.464z
			 M108.357,54.898l-0.974-2.252l-0.965,2.252H108.357z"/>
		<path fill="#4E182A" d="M117.865,57.215c-0.435,0-0.85-0.074-1.247-0.221c-0.397-0.148-0.764-0.374-1.102-0.68l0.595-0.709
			c0.273,0.235,0.55,0.418,0.828,0.545c0.28,0.125,0.596,0.188,0.949,0.188c0.307,0,0.549-0.063,0.729-0.191
			c0.179-0.129,0.269-0.301,0.269-0.515v-0.018c0-0.101-0.017-0.191-0.052-0.271c-0.035-0.078-0.101-0.15-0.194-0.22
			c-0.094-0.069-0.224-0.135-0.387-0.194c-0.164-0.059-0.378-0.117-0.641-0.176c-0.302-0.07-0.569-0.148-0.803-0.236
			c-0.233-0.091-0.43-0.195-0.589-0.322c-0.158-0.127-0.28-0.28-0.362-0.463c-0.083-0.183-0.126-0.402-0.126-0.659v-0.017
			c0-0.242,0.048-0.463,0.145-0.664c0.096-0.201,0.227-0.373,0.395-0.516c0.167-0.143,0.369-0.253,0.604-0.334
			c0.236-0.08,0.493-0.12,0.772-0.12c0.412,0,0.784,0.062,1.114,0.183c0.329,0.119,0.639,0.295,0.929,0.525l-0.53,0.747
			c-0.257-0.188-0.512-0.329-0.764-0.43s-0.508-0.149-0.765-0.149c-0.29,0-0.514,0.064-0.676,0.194
			c-0.16,0.128-0.241,0.284-0.241,0.475v0.017c0,0.106,0.018,0.203,0.056,0.285c0.038,0.084,0.107,0.157,0.206,0.226
			c0.1,0.065,0.237,0.13,0.412,0.188c0.174,0.06,0.396,0.121,0.666,0.187c0.295,0.075,0.558,0.157,0.786,0.25
			c0.229,0.09,0.418,0.202,0.569,0.333c0.15,0.131,0.265,0.283,0.343,0.459c0.078,0.173,0.116,0.376,0.116,0.607v0.015
			c0,0.263-0.049,0.5-0.147,0.709c-0.099,0.21-0.235,0.385-0.411,0.53c-0.175,0.144-0.387,0.254-0.633,0.33
			C118.432,57.178,118.161,57.215,117.865,57.215z"/>
		<path fill="#4E182A" d="M125.621,51.505h0.98v2.341h2.704v-2.341h0.98v5.631h-0.98v-2.372h-2.704v2.372h-0.98V51.505z"/>
		<path fill="#4E182A" d="M136.376,51.505h0.982v5.631h-0.982V51.505z"/>
		<path fill="#4E182A" d="M146.143,57.23c-0.435,0-0.832-0.075-1.19-0.228c-0.36-0.153-0.669-0.36-0.926-0.623
			c-0.257-0.265-0.458-0.571-0.604-0.923c-0.145-0.352-0.217-0.725-0.217-1.123V54.32c0-0.397,0.072-0.772,0.217-1.123
			c0.145-0.353,0.349-0.658,0.612-0.926c0.263-0.266,0.574-0.476,0.932-0.631c0.36-0.154,0.756-0.232,1.191-0.232
			c0.436,0,0.832,0.076,1.192,0.229c0.358,0.153,0.667,0.361,0.924,0.624c0.257,0.263,0.459,0.569,0.604,0.921
			c0.144,0.354,0.217,0.726,0.217,1.123v0.016c0,0.396-0.073,0.771-0.217,1.123c-0.145,0.351-0.349,0.66-0.612,0.924
			c-0.263,0.267-0.574,0.479-0.933,0.633S146.578,57.23,146.143,57.23z M146.159,56.322c0.278,0,0.533-0.053,0.765-0.156
			s0.432-0.247,0.597-0.426c0.166-0.18,0.295-0.391,0.388-0.633c0.094-0.24,0.141-0.498,0.141-0.772V54.32
			c0-0.273-0.047-0.532-0.141-0.776c-0.093-0.244-0.224-0.456-0.393-0.635c-0.167-0.181-0.37-0.325-0.604-0.433
			c-0.235-0.105-0.492-0.16-0.769-0.16c-0.278,0-0.533,0.052-0.765,0.156c-0.232,0.105-0.431,0.245-0.597,0.428
			c-0.166,0.18-0.295,0.39-0.389,0.632c-0.092,0.241-0.14,0.497-0.14,0.771v0.018c0,0.272,0.047,0.531,0.14,0.777
			c0.094,0.24,0.225,0.454,0.393,0.635c0.168,0.179,0.37,0.322,0.605,0.43C145.625,56.27,145.882,56.322,146.159,56.322z"/>
		<path fill="#4E182A" d="M154.88,51.505h0.916l3.009,3.894v-3.894h0.981v5.631h-0.826l-3.099-4.007v4.007h-0.981V51.505z"/>
		<path fill="#4E182A" d="M172.82,51.505h0.979v2.341h2.703v-2.341h0.98v5.631h-0.98v-2.372H173.8v2.372h-0.979V51.505
			L172.82,51.505z"/>
		<path fill="#4E182A" d="M186.205,57.23c-0.436,0-0.832-0.075-1.189-0.228c-0.359-0.153-0.668-0.36-0.927-0.623
			c-0.257-0.265-0.459-0.571-0.604-0.923c-0.144-0.352-0.217-0.725-0.217-1.123V54.32c0-0.397,0.073-0.772,0.217-1.123
			c0.146-0.353,0.351-0.658,0.613-0.926c0.264-0.266,0.572-0.476,0.934-0.631c0.357-0.154,0.755-0.232,1.188-0.232
			c0.438,0,0.831,0.076,1.192,0.229c0.36,0.153,0.666,0.361,0.926,0.624c0.257,0.263,0.458,0.569,0.603,0.921
			c0.145,0.354,0.217,0.726,0.217,1.123v0.016c0,0.396-0.072,0.771-0.217,1.123c-0.145,0.351-0.349,0.66-0.611,0.924
			c-0.262,0.267-0.573,0.479-0.934,0.633C187.035,57.155,186.641,57.23,186.205,57.23z M186.221,56.322
			c0.278,0,0.532-0.053,0.766-0.156c0.232-0.104,0.432-0.247,0.597-0.426c0.166-0.18,0.296-0.391,0.39-0.633
			c0.094-0.24,0.141-0.498,0.141-0.772V54.32c0-0.273-0.047-0.532-0.141-0.776s-0.224-0.456-0.394-0.635
			c-0.168-0.181-0.369-0.325-0.603-0.433c-0.238-0.105-0.492-0.16-0.771-0.16c-0.277,0-0.534,0.052-0.766,0.156
			c-0.232,0.105-0.431,0.245-0.598,0.428c-0.166,0.18-0.295,0.39-0.388,0.632c-0.095,0.241-0.14,0.497-0.14,0.771v0.018
			c0,0.272,0.045,0.531,0.14,0.777c0.093,0.24,0.224,0.454,0.394,0.635c0.166,0.179,0.369,0.322,0.604,0.43
			S185.941,56.322,186.221,56.322z"/>
		<path fill="#4E182A" d="M197.251,57.223c-0.364,0-0.694-0.051-0.991-0.154c-0.293-0.104-0.547-0.262-0.755-0.473
			c-0.21-0.209-0.37-0.467-0.483-0.775c-0.111-0.307-0.168-0.668-0.168-1.072v-3.242h0.98v3.201c0,0.525,0.127,0.926,0.38,1.199
			c0.254,0.273,0.604,0.408,1.052,0.408c0.443,0,0.791-0.131,1.045-0.395c0.254-0.262,0.381-0.652,0.381-1.173v-3.242h0.98v3.193
			c0,0.418-0.057,0.784-0.174,1.102c-0.116,0.316-0.275,0.581-0.486,0.792c-0.207,0.213-0.461,0.371-0.76,0.477
			C197.955,57.172,197.621,57.223,197.251,57.223z"/>
		<path fill="#4E182A" d="M207.598,57.215c-0.437,0-0.853-0.074-1.248-0.221c-0.396-0.148-0.765-0.374-1.104-0.68l0.595-0.709
			c0.274,0.235,0.552,0.418,0.83,0.545c0.278,0.125,0.595,0.188,0.948,0.188c0.307,0,0.549-0.063,0.729-0.191
			s0.271-0.301,0.271-0.515v-0.018c0-0.101-0.018-0.191-0.055-0.271c-0.033-0.078-0.101-0.15-0.191-0.22
			c-0.096-0.069-0.227-0.135-0.389-0.194c-0.164-0.059-0.379-0.117-0.642-0.176c-0.302-0.07-0.569-0.148-0.802-0.236
			c-0.234-0.091-0.43-0.195-0.589-0.322c-0.16-0.127-0.28-0.28-0.363-0.463c-0.084-0.183-0.126-0.402-0.126-0.659v-0.017
			c0-0.242,0.049-0.463,0.146-0.664c0.095-0.201,0.227-0.373,0.393-0.516c0.17-0.143,0.371-0.253,0.605-0.334
			c0.235-0.08,0.492-0.12,0.772-0.12c0.412,0,0.783,0.062,1.113,0.183c0.33,0.119,0.638,0.295,0.929,0.525l-0.533,0.747
			c-0.255-0.188-0.511-0.329-0.763-0.43s-0.507-0.149-0.765-0.149c-0.287,0-0.514,0.064-0.676,0.194
			c-0.16,0.128-0.242,0.284-0.242,0.475v0.017c0,0.106,0.021,0.203,0.06,0.285c0.037,0.084,0.104,0.157,0.205,0.226
			c0.099,0.065,0.235,0.13,0.411,0.188c0.175,0.06,0.396,0.121,0.667,0.187c0.293,0.075,0.555,0.157,0.784,0.25
			c0.228,0.09,0.418,0.202,0.568,0.333c0.148,0.131,0.264,0.283,0.342,0.459c0.08,0.173,0.119,0.376,0.119,0.607v0.015
			c0,0.263-0.052,0.5-0.148,0.709c-0.098,0.21-0.235,0.385-0.41,0.53c-0.178,0.144-0.389,0.254-0.634,0.33
			C208.161,57.178,207.891,57.215,207.598,57.215z"/>
		<path fill="#4E182A" d="M215.352,51.505h4.168v0.894h-3.188v1.447h2.825v0.893h-2.825v1.506h3.228v0.893h-4.207V51.505
			L215.352,51.505z"/>
	</g>
</g>
</svg>
