<?xml version="1.0" encoding="utf-8"?>
<!-- Generator: Adobe Illustrator 13.0.0, SVG Export Plug-In . SVG Version: 6.00 Build 14948)  -->
<!DOCTYPE svg PUBLIC "-//W3C//DTD SVG 1.1//EN" "http://www.w3.org/Graphics/SVG/1.1/DTD/svg11.dtd">
<svg version="1.1" id="Layer_1" xmlns="http://www.w3.org/2000/svg" xmlns:xlink="http://www.w3.org/1999/xlink" x="0px" y="0px"
	 width="146.667px" height="98.667px" viewBox="-46.249 -139.667 146.667 98.667"
	 enable-background="new -46.249 -139.667 146.667 98.667" xml:space="preserve">
<g>
	<g>
		<path fill="#4E182A" d="M-26.25-108.358c0,4.384-0.107,6.899,5.027,6.738v1.928H-39.46v-1.928
			c5.134,0.161,5.028-2.352,5.028-6.738v-18.078c0-4.386,0.105-6.9-5.028-6.742v-1.925h18.237v1.927
			c-5.135-0.158-5.027,2.356-5.027,6.742V-119h15.832v-7.435c0-4.386,0.051-6.9-5.081-6.742v-1.927H2.789v1.927
			c-5.135-0.158-5.023,2.356-5.023,6.742v18.077c0,4.384-0.111,6.899,5.023,6.738v1.928h-18.288v-1.928
			c5.134,0.161,5.081-2.352,5.081-6.738v-7.968H-26.25V-108.358z"/>
		<path fill="#4E182A" d="M64.358-84.706c0,4.385-0.108,6.9,5.026,6.737v1.927H51.147v-1.927c5.132,0.163,5.028-2.352,5.028-6.737
			v-18.076c0-4.387,0.104-6.899-5.028-6.742v-1.926h18.237v1.926c-5.137-0.158-5.029,2.355-5.029,6.742v7.433h15.832v-7.433
			c0-4.387,0.05-6.899-5.081-6.742v-1.926h18.289v1.926c-5.135-0.158-5.024,2.355-5.024,6.742v18.076c0,4.385-0.11,6.9,5.024,6.737
			v1.927H75.108v-1.927c5.13,0.163,5.08-2.352,5.08-6.737v-7.968h-15.83V-84.706z"/>
		<path fill="#CCAD5E" d="M51.147-111.448h-6.555h-5.257h-6.175c-0.538,0-0.976,0.435-0.976,0.972c0,0.336,0.18,0.618,0.438,0.793
			c0.076,0.049,0.147,0.091,0.229,0.118c4.352,2.456,7.237,7.131,7.237,12.553c0,2.69-0.748,5.203-2.026,7.36
			c-1.337-3.814-3.64-7.649-7.22-11.226c-2.936-2.933-5.457-5.394-7.623-7.485c-0.866-0.834-1.666-1.603-2.42-2.327
			c-0.308-0.295-0.606-0.582-0.9-0.86c-1.142-1.098-2.154-2.068-3.039-2.933c-3.618-3.535-5.163-5.339-5.533-7.248
			c-0.015-0.128-0.049-0.254-0.061-0.388c-0.018-0.242-0.035-0.487-0.035-0.735c0-4.996,4.051-9.043,9.043-9.043
			c3.723,0,6.912,2.252,8.299,5.465c0.073,0.173,0.141,0.347,0.206,0.525c0.043,0.082,0.097,0.152,0.15,0.208
			c0.606,0.603,1.659-0.277,2.452-1.574c0.438-0.713,0.795-1.553,0.951-2.335c0.238-1.184-0.641-2.218-1.621-2.976
			c-0.701-0.484-1.459-0.907-2.252-1.259c-1.847-0.823-3.905-1.26-6.041-1.246v-0.014H2.789v1.925H15.08
			c-5.354,2.973-8.361,8.927-6.967,14.805c0.449,3.174,1.584,5.82,3.557,8.637C3.756-103.64,0.102-94.57,3.35-87.204
			c4.049,9.182,17.288,12.233,29.568,6.818c0.479-0.211,0.945-0.435,1.405-0.665c2.438,7.148-0.032,11.816-3.497,13.81
			c-5.65,3.245-10.441,2.879-14.094-0.656c-3.65-3.538-4.658-0.176-5.02,1.242c-0.361,1.413-2.69,6.657,6.207,6.657
			c8.902,0,16.736-3.704,19.876-11.559c1.43-3.586,2.139-7.977,1.559-12.613c8.013-6.095,11.737-15.235,8.469-22.649
			c-0.439-0.997-0.938-1.883-1.53-2.704h4.853v-1.927H51.147z M25.588-82.511c-8.01,0-14.502-6.495-14.502-14.501
			c0-3.516,1.255-6.741,3.338-9.254c2.181,2.504,4.965,5.305,8.461,8.797c4.877,4.878,8.053,9.21,9.974,12.989
			C30.719-83.236,28.24-82.511,25.588-82.511"/>
	</g>
	<g>
		<path fill="#4E182A" d="M-39.805-50.913h4.51v0.962h-3.453v1.672h3.062v0.963h-3.062v2.474h-1.057V-50.913z"/>
		<path fill="#4E182A" d="M-27.019-50.958h0.989l2.672,6.115h-1.129l-0.615-1.468h-2.871l-0.625,1.468h-1.092L-27.019-50.958z
			 M-25.491-47.253l-1.051-2.428l-1.041,2.428H-25.491z"/>
		<path fill="#4E182A" d="M-15.238-44.757c-0.469,0-0.916-0.081-1.343-0.238c-0.43-0.158-0.824-0.403-1.189-0.731l0.642-0.764
			c0.295,0.254,0.594,0.449,0.895,0.585c0.3,0.134,0.642,0.204,1.022,0.204c0.331,0,0.591-0.069,0.785-0.209s0.29-0.324,0.29-0.556
			v-0.015c0-0.112-0.018-0.208-0.055-0.292c-0.038-0.085-0.109-0.163-0.209-0.241c-0.102-0.074-0.242-0.144-0.418-0.207
			c-0.178-0.063-0.408-0.126-0.692-0.191c-0.325-0.077-0.614-0.16-0.866-0.255c-0.252-0.095-0.465-0.211-0.635-0.347
			c-0.172-0.138-0.303-0.305-0.391-0.5c-0.09-0.197-0.135-0.431-0.135-0.711v-0.014c0-0.262,0.052-0.5,0.154-0.717
			c0.104-0.215,0.246-0.403,0.426-0.553c0.182-0.154,0.398-0.275,0.651-0.363c0.255-0.086,0.532-0.13,0.833-0.13
			c0.445,0,0.846,0.065,1.201,0.196c0.355,0.13,0.689,0.318,1.002,0.569l-0.574,0.805c-0.277-0.201-0.551-0.354-0.822-0.462
			c-0.273-0.106-0.547-0.16-0.826-0.16c-0.311,0-0.554,0.07-0.728,0.208c-0.173,0.139-0.261,0.309-0.261,0.511v0.017
			c0,0.118,0.021,0.22,0.062,0.309c0.042,0.092,0.116,0.171,0.224,0.242c0.107,0.074,0.254,0.142,0.442,0.207
			c0.188,0.062,0.427,0.127,0.718,0.197c0.318,0.083,0.603,0.171,0.848,0.271c0.246,0.098,0.451,0.22,0.612,0.36
			c0.163,0.142,0.286,0.306,0.37,0.493c0.084,0.19,0.125,0.405,0.125,0.655v0.017c0,0.286-0.053,0.541-0.156,0.764
			c-0.106,0.225-0.255,0.417-0.445,0.574c-0.188,0.156-0.416,0.275-0.684,0.357C-14.627-44.795-14.918-44.757-15.238-44.757z"/>
		<path fill="#4E182A" d="M-6.875-50.913h1.058v2.523H-2.9v-2.523h1.058v6.071H-2.9v-2.559h-2.917v2.559h-1.058V-50.913z"/>
		<path fill="#4E182A" d="M4.727-50.913h1.058v6.071H4.727V-50.913z"/>
		<path fill="#4E182A" d="M15.256-44.738c-0.468,0-0.896-0.083-1.283-0.247c-0.387-0.166-0.72-0.39-0.996-0.672
			c-0.279-0.285-0.496-0.616-0.652-0.996c-0.156-0.378-0.232-0.782-0.232-1.21v-0.014c0-0.429,0.076-0.833,0.232-1.211
			c0.155-0.376,0.377-0.712,0.659-0.999c0.286-0.285,0.62-0.513,1.007-0.682c0.389-0.166,0.816-0.251,1.284-0.251
			c0.47,0,0.896,0.083,1.284,0.248c0.389,0.166,0.719,0.39,0.998,0.672c0.278,0.285,0.494,0.616,0.651,0.993
			c0.153,0.381,0.233,0.782,0.233,1.21v0.02c0,0.425-0.08,0.832-0.233,1.209c-0.157,0.378-0.378,0.711-0.661,0.999
			c-0.281,0.285-0.617,0.513-1.004,0.682C16.154-44.822,15.726-44.738,15.256-44.738z M15.275-45.72
			c0.299,0,0.574-0.054,0.826-0.167c0.251-0.113,0.465-0.266,0.643-0.459c0.18-0.195,0.318-0.422,0.42-0.683
			c0.1-0.258,0.151-0.537,0.151-0.833v-0.014c0-0.296-0.052-0.575-0.151-0.838c-0.102-0.262-0.244-0.492-0.425-0.685
			c-0.18-0.194-0.399-0.35-0.651-0.465c-0.254-0.115-0.529-0.173-0.83-0.173c-0.299,0-0.574,0.057-0.825,0.17
			c-0.249,0.114-0.464,0.268-0.643,0.46c-0.179,0.193-0.319,0.419-0.419,0.682c-0.102,0.258-0.151,0.537-0.151,0.832v0.017
			c0,0.296,0.051,0.575,0.151,0.837c0.1,0.264,0.242,0.492,0.422,0.686c0.182,0.194,0.398,0.347,0.652,0.462
			C14.699-45.775,14.975-45.72,15.275-45.72z"/>
		<path fill="#4E182A" d="M24.682-50.913h0.984l3.246,4.197v-4.197h1.059v6.071H29.08l-3.342-4.32v4.32H24.68v-6.071H24.682z"/>
		<path fill="#4E182A" d="M44.026-50.913h1.06v2.523h2.913v-2.523h1.057v6.071h-1.057v-2.559h-2.913v2.559h-1.06V-50.913z"/>
		<path fill="#4E182A" d="M58.461-44.738c-0.468,0-0.896-0.083-1.283-0.247c-0.39-0.166-0.72-0.39-0.998-0.672
			c-0.277-0.285-0.496-0.616-0.648-0.996c-0.157-0.378-0.235-0.782-0.235-1.21v-0.014c0-0.429,0.078-0.833,0.235-1.211
			c0.152-0.376,0.374-0.712,0.656-0.999c0.284-0.285,0.619-0.513,1.007-0.682c0.389-0.166,0.816-0.251,1.282-0.251
			c0.471,0,0.898,0.083,1.285,0.248c0.389,0.166,0.719,0.39,0.997,0.672c0.278,0.285,0.498,0.616,0.649,0.993
			c0.157,0.381,0.235,0.782,0.235,1.21v0.02c0,0.425-0.078,0.832-0.235,1.209c-0.151,0.378-0.374,0.711-0.657,0.999
			c-0.283,0.286-0.621,0.513-1.005,0.682C59.356-44.822,58.929-44.738,58.461-44.738z M58.479-45.72c0.3,0,0.575-0.054,0.825-0.167
			c0.251-0.113,0.464-0.266,0.646-0.459c0.178-0.195,0.314-0.422,0.416-0.683c0.101-0.258,0.151-0.537,0.151-0.833v-0.014
			c0-0.296-0.049-0.575-0.151-0.838c-0.102-0.262-0.241-0.492-0.422-0.685c-0.182-0.194-0.398-0.35-0.652-0.465
			c-0.252-0.115-0.528-0.173-0.83-0.173c-0.298,0-0.575,0.057-0.823,0.17c-0.251,0.114-0.463,0.268-0.645,0.46
			c-0.176,0.194-0.317,0.419-0.416,0.682c-0.103,0.258-0.152,0.537-0.152,0.832v0.017c0,0.296,0.05,0.575,0.152,0.837
			c0.099,0.264,0.24,0.492,0.422,0.686c0.179,0.194,0.399,0.347,0.651,0.462C57.903-45.775,58.179-45.72,58.479-45.72z"/>
		<path fill="#4E182A" d="M70.374-44.746c-0.394,0-0.748-0.058-1.069-0.17c-0.316-0.112-0.588-0.283-0.815-0.51
			c-0.225-0.224-0.397-0.503-0.519-0.834c-0.12-0.333-0.183-0.72-0.183-1.16v-3.494h1.059v3.453c0,0.565,0.136,0.996,0.408,1.291
			c0.274,0.296,0.651,0.445,1.135,0.445c0.478,0,0.851-0.143,1.127-0.428c0.271-0.282,0.407-0.704,0.407-1.267v-3.494h1.059v3.443
			c0,0.451-0.063,0.848-0.187,1.188c-0.124,0.341-0.301,0.629-0.527,0.856c-0.223,0.228-0.496,0.399-0.817,0.513
			C71.134-44.804,70.773-44.746,70.374-44.746z"/>
		<path fill="#4E182A" d="M81.533-44.757c-0.473,0-0.921-0.081-1.346-0.238c-0.431-0.158-0.825-0.403-1.19-0.731l0.644-0.764
			c0.293,0.254,0.592,0.449,0.891,0.585c0.302,0.136,0.643,0.204,1.023,0.204c0.333,0,0.591-0.069,0.788-0.209
			c0.193-0.14,0.29-0.324,0.29-0.556v-0.015c0-0.112-0.02-0.208-0.06-0.292c-0.035-0.085-0.106-0.163-0.208-0.241
			c-0.098-0.074-0.239-0.144-0.415-0.207c-0.176-0.063-0.408-0.126-0.694-0.191c-0.323-0.077-0.612-0.16-0.864-0.255
			c-0.255-0.095-0.464-0.211-0.637-0.347c-0.168-0.138-0.3-0.305-0.39-0.5c-0.092-0.197-0.136-0.431-0.136-0.711v-0.014
			c0-0.262,0.051-0.5,0.154-0.717c0.104-0.215,0.244-0.403,0.426-0.553c0.181-0.154,0.397-0.275,0.649-0.363
			c0.254-0.086,0.533-0.13,0.834-0.13c0.447,0,0.847,0.065,1.201,0.196c0.354,0.13,0.69,0.318,1.002,0.569l-0.574,0.805
			c-0.276-0.201-0.553-0.354-0.824-0.462c-0.272-0.106-0.547-0.16-0.823-0.16c-0.311,0-0.556,0.07-0.729,0.208
			c-0.172,0.139-0.26,0.309-0.26,0.511v0.017c0,0.118,0.019,0.22,0.06,0.309c0.04,0.092,0.113,0.171,0.222,0.242
			c0.107,0.074,0.255,0.142,0.444,0.207c0.19,0.062,0.428,0.127,0.717,0.197c0.317,0.083,0.604,0.171,0.848,0.271
			c0.248,0.098,0.452,0.22,0.613,0.36c0.16,0.142,0.285,0.306,0.371,0.493c0.084,0.19,0.125,0.405,0.125,0.655v0.017
			c0,0.286-0.054,0.541-0.157,0.764c-0.104,0.225-0.257,0.417-0.443,0.574c-0.189,0.156-0.42,0.275-0.683,0.357
			C82.14-44.795,81.848-44.757,81.533-44.757z"/>
		<path fill="#4E182A" d="M89.895-50.913h4.494v0.962h-3.436v1.562h3.046v0.963h-3.046v1.621h3.479v0.963h-4.538V-50.913z"/>
	</g>
</g>
</svg>
